<svg width="202" height="44" viewBox="0 0 202 44" fill="none" xmlns="http://www.w3.org/2000/svg">
<g clip-path="url(#clip0_1435_2089)">
<path d="M53.7895 35.0689H51.1797V6.37256H68.8265L68.9453 8.2001C68.4186 7.75116 67.2187 7.36579 65.3455 7.04795C63.3931 6.75793 61.2823 6.61093 59.013 6.61093H54.2647V18.6767C56.3201 17.9099 58.3913 17.5245 60.4783 17.5245C62.5654 17.5245 64.2564 17.755 65.7217 18.2198C67.187 18.6846 68.3077 19.3243 69.0839 20.1466C69.8601 20.969 70.4304 21.855 70.7868 22.8045C71.1433 23.758 71.3215 24.8148 71.3215 25.9789C71.3215 28.307 70.5294 30.357 68.9493 32.1289C67.1276 34.2187 64.094 35.2636 59.8487 35.2636C59.7694 35.2636 58.7556 35.2358 56.8032 35.1841C55.3261 35.1047 54.3241 35.0649 53.7974 35.0649L53.7895 35.0689ZM67.9157 26.1378C67.9157 20.6075 65.1712 17.8424 59.6863 17.8424C57.8646 17.8424 56.0587 18.1999 54.2647 18.915V34.5922C55.5558 34.8822 57.3656 35.0292 59.6863 35.0292C62.007 35.0292 64.0901 34.2227 65.6227 32.6097C67.1513 30.9967 67.9157 28.8394 67.9157 26.1378Z" fill="black"/>
<path d="M83.1878 15.5024C85.56 15.5024 87.3817 16.3209 88.649 17.9617C89.9162 19.6303 90.5618 21.5611 90.5895 23.7582H77.493C77.493 31.116 79.5879 34.7909 83.7858 34.7909C86.451 34.7909 88.5856 33.4799 90.1974 30.8617L90.3954 30.9809C88.6014 33.9963 86.1501 35.5061 83.0373 35.5061C82.0869 35.5061 81.1443 35.3392 80.2097 35.0094C79.2711 34.6797 78.3682 34.1632 77.5009 33.46C76.6296 32.7608 75.9247 31.7318 75.3822 30.385C74.8396 29.0342 74.5703 27.449 74.5703 25.6214C74.5703 22.5265 75.3426 20.0633 76.8831 18.2398C78.4236 16.4162 80.5305 15.5024 83.1957 15.5024H83.1878ZM77.489 23.5198H87.8173C87.8173 21.2711 87.4094 19.4197 86.5896 17.9617C85.7461 16.4798 84.5066 15.7368 82.871 15.7368C79.6275 15.7368 77.8336 18.3312 77.489 23.5158V23.5198Z" fill="black"/>
<path d="M94.4609 44.0001V16.3368L96.9519 15.5024V18.2C98.7459 16.4003 100.722 15.5024 102.888 15.5024C103.918 15.5024 104.908 15.6693 105.855 15.9991C106.805 16.3288 107.72 16.8612 108.603 17.5882C109.486 18.3153 110.191 19.3562 110.718 20.703C111.244 22.0538 111.51 23.639 111.51 25.4665C111.51 28.2992 110.694 30.679 109.058 32.6098C107.451 34.489 105.221 35.4544 102.373 35.5061C100.29 35.5061 98.4806 35.0055 96.9519 33.9963V44.0001H94.4609ZM108.587 25.5817C108.587 19.3363 106.373 16.2136 101.942 16.2136C100.334 16.2136 98.6707 16.9565 96.9559 18.4345V33.754C98.037 34.4413 99.5538 34.787 101.506 34.787C103.617 34.787 105.324 33.9685 106.631 32.3277C107.938 30.6869 108.591 28.4382 108.591 25.5817H108.587Z" fill="black"/>
<path d="M123.106 15.5024C125.478 15.5024 127.3 16.3209 128.567 17.9617C129.834 19.6303 130.48 21.5611 130.508 23.7582H117.411C117.411 31.116 119.506 34.7909 123.7 34.7909C126.365 34.7909 128.5 33.4799 130.111 30.8617L130.31 30.9809C128.516 33.9963 126.064 35.5061 122.951 35.5061C122.001 35.5061 121.058 35.3392 120.124 35.0094C119.185 34.6797 118.282 34.1632 117.415 33.46C116.544 32.7608 115.839 31.7318 115.296 30.385C114.754 29.0342 114.484 27.449 114.484 25.6214C114.484 22.5265 115.257 20.0633 116.797 18.2398C118.338 16.4162 120.445 15.5024 123.11 15.5024H123.106ZM117.407 23.5198H127.735C127.735 21.2711 127.327 19.4197 126.508 17.9617C125.664 16.4798 124.425 15.7368 122.789 15.7368C119.546 15.7368 117.752 18.3312 117.407 23.5158V23.5198Z" fill="black"/>
<path d="M143.01 24.6322H145.224V15.9792H147.715V24.6322H149.933C151.224 24.6322 152.293 24.0363 153.137 22.8444C153.426 22.3954 153.849 21.4698 154.404 20.0673C155.037 18.506 155.433 17.5803 155.592 17.2903C156.277 16.0984 157.16 15.5024 158.241 15.5024C158.899 15.5024 159.52 15.6733 160.103 16.0189L159.865 17.1313C159.204 16.3924 158.546 16.0189 157.885 16.0189C157.093 16.0189 156.42 16.4679 155.865 17.3697C155.655 17.6875 155.35 18.3868 154.954 19.4754C154.214 21.4062 153.703 22.5981 153.41 23.047C152.804 23.8932 151.984 24.4494 150.958 24.7156V24.8348C152.119 25.0215 153.2 25.4983 154.202 26.2651C155.311 27.1391 156.245 28.3667 157.01 29.9559C157.089 30.1148 157.227 30.4446 157.425 30.9491C157.623 31.4537 157.786 31.851 157.92 32.141C158.578 33.9129 159.267 34.7989 159.98 34.7989C160.693 34.7989 161.112 34.0996 161.326 32.6972H161.564C161.457 34.5764 160.641 35.514 159.113 35.514C157.16 35.514 155.564 33.9805 154.325 30.9094L153.137 28.0131C152.531 26.6624 151.727 25.7128 150.725 25.1566C150.38 24.9699 149.826 24.8785 149.061 24.8785H147.715V35.081H145.224V24.8785H143.877C143.113 24.8785 142.559 24.9699 142.214 25.1566C141.212 25.7128 140.408 26.6663 139.802 28.0131L138.614 30.9094C137.375 33.9805 135.779 35.514 133.826 35.514C132.298 35.514 131.478 34.5764 131.375 32.6972H131.613C131.822 34.0996 132.27 34.7989 132.959 34.7989C133.648 34.7989 134.357 33.9129 135.018 32.141C135.363 31.2948 135.676 30.5677 135.969 29.9599C136.151 29.5626 136.507 28.9547 137.038 28.1323C137.537 27.3934 138.107 26.7696 138.741 26.2651C139.743 25.4983 140.824 25.0215 141.984 24.8348V24.7156C140.955 24.4494 140.139 23.8972 139.533 23.047C139.268 22.5981 138.757 21.4062 137.989 19.4754C137.593 18.3907 137.288 17.6875 137.078 17.3697C136.523 16.4718 135.85 16.0189 135.062 16.0189C134.401 16.0189 133.743 16.3884 133.082 17.1313L132.844 16.0189C133.422 15.6733 134.044 15.5024 134.706 15.5024C135.814 15.5024 136.698 16.0984 137.355 17.2903C137.513 17.5803 137.909 18.506 138.543 20.0673C139.097 21.4698 139.517 22.3954 139.81 22.8444C140.626 24.0363 141.695 24.6322 143.014 24.6322H143.01Z" fill="black"/>
<path d="M166.983 15.979V24.632H176.836V15.979H179.327V35.0728H176.836V24.8704H166.983V35.0728H164.492V15.979H166.983Z" fill="black"/>
<path d="M201.999 25.5459C201.999 28.5097 201.127 30.9054 199.389 32.7289C197.646 34.5803 195.432 35.506 192.739 35.506C190.046 35.506 187.833 34.5922 186.094 32.7687C184.352 30.9411 183.484 28.5335 183.484 25.5459C183.484 22.3437 184.32 19.8686 185.995 18.1245C187.67 16.3764 189.92 15.5063 192.739 15.5063C195.559 15.5063 197.876 16.3605 199.523 18.0649C201.171 19.7733 201.995 22.2643 201.995 25.5459H201.999ZM199.072 25.5459C199.072 22.2365 198.498 19.7772 197.349 18.1642C196.201 16.5512 194.664 15.7447 192.739 15.7447C190.815 15.7447 189.243 16.5473 188.11 18.1444C186.977 19.7454 186.407 22.2126 186.407 25.5459C186.407 28.8792 186.973 31.3344 188.11 32.9077C189.243 34.481 190.787 35.2716 192.739 35.2716C194.692 35.2716 196.201 34.473 197.349 32.8719C198.498 31.2709 199.072 28.8315 199.072 25.5499V25.5459Z" fill="black"/>
<path d="M38.2007 34.2424C37.6542 34.2424 37.2027 33.9086 36.8463 33.2412C36.5612 32.7883 36.3948 32.4665 36.3473 32.2758C36.2998 32.1328 36.1968 31.8825 36.0463 31.5249C35.8919 31.1673 35.7929 30.917 35.7454 30.774C35.5315 30.2734 35.3018 29.7013 35.0523 29.0577C34.8028 28.4141 34.6563 28.0446 34.6088 27.9493C33.9434 26.3323 33.1356 24.9736 32.1891 23.877C31.4049 22.9235 30.5456 22.1687 29.607 21.6085C28.7159 21.0761 27.5793 20.6709 26.2051 20.3849C27.5793 20.0988 28.7159 19.6936 29.607 19.1612C30.5456 18.601 31.4049 17.8462 32.1891 16.8927C33.1395 15.7961 33.9434 14.4414 34.6088 12.8204C34.6563 12.7251 34.8068 12.3556 35.0523 11.712C35.3018 11.0684 35.5315 10.4963 35.7454 9.99569C35.7929 9.85267 35.8919 9.60237 36.0463 9.24481C36.2008 8.88725 36.2998 8.63695 36.3473 8.49393C36.3948 8.30323 36.5612 7.98142 36.8463 7.52851C37.2027 6.86106 37.6542 6.52734 38.2007 6.52734C39.0799 6.52734 39.5789 7.2663 39.6977 8.74025H39.9115C39.8402 6.83325 38.9611 5.88373 37.278 5.88373C35.781 5.88373 34.5494 6.62269 33.5751 8.09664C33.092 8.80779 32.6049 9.65799 32.1059 10.6512C31.6425 10.9532 31.104 11.267 30.4862 11.5888C30.0109 11.8272 28.8466 12.3635 26.9972 13.1979C26.9299 13.2257 26.8665 13.2575 26.7992 13.2853C27.5952 11.5094 28.11 10.385 28.3397 9.92021C28.712 9.20905 29.0684 8.59723 29.4129 8.08869C30.6406 7.49276 31.6782 6.90874 32.5178 6.33664C33.991 5.3593 34.7236 4.12373 34.7236 2.62197C34.7236 0.933479 33.7732 0.0514929 31.8762 -0.0200195V0.194518C33.3494 0.313705 34.0821 0.814292 34.0821 1.69628C34.0821 2.24454 33.7494 2.69745 33.0841 3.05501C32.6326 3.34106 32.3118 3.50793 32.1217 3.5556C31.9792 3.60328 31.7297 3.70657 31.3732 3.85754C31.0168 4.01249 30.7673 4.11181 30.6248 4.15948C30.1258 4.37402 29.5555 4.60445 28.9139 4.85474C28.2724 5.10504 27.9041 5.25203 27.809 5.29971C26.1972 5.96716 24.8428 6.77763 23.7498 7.72716C22.7993 8.5138 22.0469 9.37592 21.4885 10.3175C20.9578 11.2114 20.5539 12.3516 20.2687 13.7302C19.9836 12.3516 19.5796 11.2114 19.049 10.3175C18.4906 9.37592 17.7381 8.5138 16.7877 7.72716C15.6947 6.77366 14.3442 5.96716 12.7284 5.29971C12.6334 5.25203 12.2651 5.10106 11.6235 4.85474C10.982 4.60445 10.4117 4.37402 9.9127 4.15948C9.77013 4.11181 9.52064 4.01249 9.16421 3.85754C8.80779 3.7026 8.5583 3.60328 8.41573 3.5556C8.22564 3.50793 7.90486 3.34106 7.45339 3.05501C6.78807 2.69745 6.45541 2.24454 6.45541 1.69628C6.45541 0.814292 7.19201 0.313705 8.66126 0.194518V-0.0200195C6.76035 0.0514929 5.81385 0.933479 5.81385 2.62197C5.81385 4.12373 6.55046 5.3593 8.0197 6.33664C8.65334 6.76969 9.40183 7.21068 10.2612 7.65565C10.6691 8.2198 11.1008 8.93492 11.5522 9.80102C11.778 10.2579 12.2809 11.3505 13.0532 13.0707C11.3621 12.3079 10.2889 11.8113 9.83746 11.5849C9.03749 11.1637 8.36425 10.7625 7.82169 10.3771C7.31082 9.36003 6.81183 8.48598 6.32076 7.76291C6.15839 7.51659 5.99206 7.29411 5.81385 7.09149C5.81385 7.0756 5.81385 7.06368 5.81385 7.04779V7.08752C4.93072 6.06251 3.86541 5.54603 2.61794 5.54603C0.934833 5.54603 0.0556593 6.49953 -0.015625 8.40255H0.198228C0.317035 6.92463 0.816026 6.18964 1.6952 6.18964C2.24171 6.18964 2.69318 6.52337 3.0496 7.19082C3.33474 7.64373 3.50107 7.96553 3.54859 8.15623C3.59611 8.29926 3.69908 8.54955 3.84957 8.90711C4.00402 9.26468 4.10303 9.51497 4.15055 9.65799C4.3644 10.1586 4.5941 10.7307 4.84359 11.3743C5.09309 12.0179 5.23962 12.3874 5.28714 12.4827C5.95246 14.0997 6.76035 15.4584 7.70685 16.555C8.49097 17.5085 9.35035 18.2633 10.2889 18.8235C11.18 19.3559 12.3166 19.7611 13.6908 20.0472C12.3166 20.3332 11.18 20.7384 10.2889 21.2708C9.35035 21.831 8.49097 22.5858 7.70685 23.5393C6.75639 24.6359 5.95246 25.9906 5.28714 27.6116C5.23962 27.7069 5.08913 28.0764 4.84359 28.72C4.5941 29.3636 4.3644 29.9357 4.15055 30.4363C4.10303 30.5793 4.00402 30.8296 3.84957 31.1872C3.69512 31.5448 3.59611 31.7951 3.54859 31.9381C3.50107 32.1288 3.33474 32.4506 3.0496 32.9035C2.69318 33.571 2.24171 33.9047 1.6952 33.9047C0.816026 33.9047 0.317035 33.1657 0.198228 31.6918H-0.015625C0.0556593 33.5988 0.934833 34.5483 2.61794 34.5483C4.11491 34.5483 5.34654 33.8093 6.32076 32.3354C6.85143 31.5487 7.39399 30.5913 7.94842 29.463C8.44345 29.1292 9.03353 28.7836 9.72261 28.4221C10.1978 28.1837 11.3621 27.6473 13.2116 26.813C13.2274 26.8051 13.2393 26.8011 13.2551 26.7932C13.2235 26.8647 13.1918 26.9362 13.1601 27.0077C12.3284 28.8631 11.7938 30.0311 11.5562 30.5078C11.275 31.0442 11.0018 31.5249 10.7404 31.946C9.53648 32.53 8.51869 33.1061 7.69496 33.6703C6.22176 34.6476 5.48911 35.8832 5.48911 37.3849C5.48911 39.0734 6.43957 39.9554 8.33652 40.0269V39.8124C6.86331 39.6932 6.13067 39.1926 6.13067 38.3106C6.13067 37.7624 6.46333 37.3095 7.12865 36.9519C7.58012 36.6659 7.9009 36.499 8.09099 36.4513C8.23356 36.4036 8.48305 36.3003 8.83947 36.1494C9.1959 35.9944 9.44539 35.8951 9.58796 35.8474C10.0869 35.6329 10.6572 35.4025 11.2988 35.1522C11.9403 34.9019 12.3086 34.7549 12.4037 34.7072C14.0155 34.0398 15.3699 33.2293 16.4629 32.2798C17.4134 31.4931 18.1658 30.631 18.7242 29.6894C19.2549 28.7955 19.6589 27.6553 19.944 26.2767C20.2291 27.6553 20.6331 28.7955 21.1637 29.6894C21.7221 30.631 22.4746 31.4931 23.425 32.2798C24.5181 33.2333 25.8685 34.0398 27.4843 34.7072C27.5793 34.7549 27.9476 34.9059 28.5892 35.1522C29.2308 35.4025 29.801 35.6329 30.3 35.8474C30.4426 35.8951 30.6921 35.9944 31.0485 36.1494C31.4049 36.3043 31.6544 36.4036 31.797 36.4513C31.9871 36.499 32.3079 36.6659 32.7593 36.9519C33.4247 37.3095 33.7573 37.7624 33.7573 38.3106C33.7573 39.1926 33.0207 39.6932 31.5515 39.8124V40.0269C33.4524 39.9554 34.3989 39.0734 34.3989 37.3849C34.3989 35.8832 33.6623 34.6476 32.193 33.6703C31.3495 33.0942 30.3079 32.5102 29.0684 31.9103C28.8347 31.5289 28.5932 31.0998 28.3476 30.627C28.11 30.1503 27.5754 28.9822 26.7437 27.1269C26.6764 26.968 26.6051 26.813 26.5378 26.6581C26.6526 26.7097 26.7675 26.7614 26.8863 26.813C28.7357 27.6473 29.9 28.1837 30.3753 28.4221C30.8386 28.6644 31.2584 28.9028 31.6386 29.1332C32.2999 30.5515 32.9494 31.7275 33.5791 32.6612C34.5533 34.1391 35.785 34.8741 37.2819 34.8741C38.965 34.8741 39.8442 33.9206 39.9155 32.0175H39.7016C39.5828 33.4955 39.0838 34.2305 38.2047 34.2305L38.2007 34.2424ZM19.3935 12.6258C19.8489 13.1303 20.1301 13.7183 20.2331 14.3858L20.2648 17.143V15.0016C20.2648 14.93 20.2687 14.8585 20.2727 14.787C20.2727 14.8585 20.2806 14.93 20.2806 15.0016V17.143L20.3123 14.3858C20.4153 13.7183 20.6964 13.1303 21.1519 12.6258C21.7459 11.9702 22.7914 11.2511 24.2844 10.4645C24.4587 10.3771 24.728 10.25 25.0844 10.0831C24.3676 11.0445 23.7419 12.1728 23.2072 13.472C23.1597 13.5673 23.0092 13.9368 22.7637 14.5804C22.6132 14.9698 22.4706 15.3273 22.332 15.665C22.3083 15.6809 22.2805 15.6968 22.2568 15.7127C21.1202 16.4676 20.4232 17.3813 20.1658 18.4461C19.9083 17.3774 19.2113 16.4676 18.0748 15.7127C17.8886 15.5856 17.6906 15.4584 17.4847 15.3313C17.3738 15.0572 17.2589 14.7711 17.1401 14.4652C16.8906 13.8216 16.7441 13.4521 16.6966 13.3568C16.1105 11.9305 15.4174 10.7108 14.6095 9.68978C15.4174 10.0593 15.9679 10.3175 16.261 10.4645C17.7579 11.2511 18.7995 11.9702 19.3935 12.6258ZM14.364 22.8401C13.7225 23.0904 13.3541 23.2374 13.2591 23.2851C11.9918 23.8095 10.8869 24.4213 9.94042 25.1206C10.1622 24.6438 10.3246 24.2982 10.4275 24.0876C11.2117 22.5858 11.9285 21.541 12.5819 20.945C13.0849 20.4882 13.671 20.2061 14.3363 20.1028L17.0847 20.071H14.9501C14.8788 20.071 14.8076 20.067 14.7363 20.063C14.8076 20.063 14.8788 20.0551 14.9501 20.0551H17.0847L14.3363 20.0233C13.671 19.92 13.0849 19.6379 12.5819 19.1811C11.9285 18.5851 11.2117 17.5363 10.4275 16.0385C10.3048 15.7922 10.0988 15.3551 9.81765 14.7354C10.8156 15.5101 11.9997 16.1855 13.374 16.7536C13.469 16.8013 13.8373 16.9523 14.4789 17.1986C14.7719 17.3138 15.0491 17.425 15.3105 17.5283C15.4293 17.7151 15.5442 17.8978 15.663 18.0726C16.4154 19.2128 17.3263 19.9121 18.3876 20.1703C17.3223 20.4286 16.4154 21.1278 15.663 22.268C15.6471 22.2879 15.6352 22.3117 15.6194 22.3316C15.2353 22.4905 14.8194 22.6613 14.364 22.8361V22.8401ZM20.8271 27.4129C20.3717 26.9084 20.0905 26.3204 19.9876 25.6529L19.9559 22.8957V25.0371C19.9559 25.1086 19.9519 25.1802 19.948 25.2517C19.948 25.1802 19.94 25.1126 19.94 25.0371V22.8957L19.9083 25.6529C19.8054 26.3204 19.5242 26.9084 19.0688 27.4129C18.4747 28.0685 17.4292 28.7876 15.9362 29.5742C15.758 29.6616 15.4848 29.7927 15.1165 29.9635C15.7105 29.0935 16.2412 28.1042 16.7006 26.9839C16.7481 26.8885 16.8986 26.519 17.1441 25.8754C17.3382 25.3709 17.5243 24.914 17.6985 24.4968C17.7857 24.4372 17.8807 24.3816 17.9639 24.322C19.1005 23.5672 19.7975 22.6534 20.0549 21.5886C20.3083 22.6335 20.9776 23.5274 22.0706 24.2704C22.0706 24.2704 22.0706 24.2743 22.0706 24.2783C22.2845 24.7789 22.5142 25.351 22.7637 25.9946C23.0132 26.6382 23.1597 27.0077 23.2072 27.1031C23.6389 28.1559 24.13 29.0935 24.6844 29.9238C24.3636 29.7728 24.1181 29.6576 23.9557 29.5742C22.4587 28.7876 21.4172 28.0685 20.8232 27.4129H20.8271ZM26.8427 23.2891C26.7477 23.2414 26.3794 23.0904 25.7378 22.8441C25.124 22.6057 24.5775 22.3832 24.0943 22.1766C23.3736 21.1635 22.5102 20.5358 21.5162 20.2935C22.5815 20.0352 23.4884 19.336 24.2409 18.1958C24.3399 18.0488 24.4428 17.8938 24.5458 17.731C24.9418 17.5641 25.3774 17.3893 25.8527 17.2026C26.4942 16.9523 26.8625 16.8053 26.9576 16.7576C28.1456 16.2689 29.1912 15.6968 30.0941 15.0532C29.805 15.6809 29.5991 16.1219 29.4763 16.3722C28.6922 17.874 27.9754 18.9189 27.3219 19.5148C26.819 19.9717 26.2329 20.2537 25.5675 20.357L22.8191 20.3888H24.9537C25.025 20.3888 25.0963 20.3928 25.1675 20.3968C25.0963 20.3968 25.025 20.4047 24.9537 20.4047H22.8191L25.5675 20.4365C26.2329 20.5398 26.819 20.8219 27.3219 21.2788C27.9754 21.8747 28.6922 22.9235 29.4763 24.4213C29.5199 24.5087 29.5753 24.62 29.6387 24.759C28.8149 24.2108 27.8843 23.7181 26.8427 23.2891Z" fill="black"/>
</g>
<defs>
<clipPath id="clip0_1435_2089">
<rect width="202" height="44" fill="white"/>
</clipPath>
</defs>
</svg>
